<?xml version="1.0" encoding="UTF-8" standalone="no"?>
<svg
   xmlns:dc="http://purl.org/dc/elements/1.1/"
   xmlns:cc="http://creativecommons.org/ns#"
   xmlns:rdf="http://www.w3.org/1999/02/22-rdf-syntax-ns#"
   xmlns:svg="http://www.w3.org/2000/svg"
   xmlns="http://www.w3.org/2000/svg"
   xmlns:sodipodi="http://sodipodi.sourceforge.net/DTD/sodipodi-0.dtd"
   xmlns:inkscape="http://www.inkscape.org/namespaces/inkscape"
   role="img"
   viewBox="0 0 27.998978 28.534098"
   version="1.1"
   id="svg8085"
   sodipodi:docname="icq.svg"
   width="27.998978"
   height="28.534098"
   inkscape:version="1.0.1 (c497b03c, 2020-09-10)">
  <metadata
     id="metadata8091">
    <rdf:RDF>
      <cc:Work
         rdf:about="">
        <dc:format>image/svg+xml</dc:format>
        <dc:type
           rdf:resource="http://purl.org/dc/dcmitype/StillImage" />
        <dc:title></dc:title>
      </cc:Work>
    </rdf:RDF>
  </metadata>
  <defs
     id="defs8089">
    <filter
       style="color-interpolation-filters:sRGB"
       inkscape:label="Invert"
       id="filter8680">
      <feColorMatrix
         type="hueRotate"
         values="180"
         result="color1"
         id="feColorMatrix8676" />
      <feColorMatrix
         values="-1 0 0 0 1 0 -1 0 0 1 0 0 -1 0 1 -0.21 -0.72 -0.07 2 0 "
         result="color2"
         id="feColorMatrix8678" />
    </filter>
  </defs>
  <sodipodi:namedview
     pagecolor="#ffffff"
     bordercolor="#666666"
     borderopacity="1"
     objecttolerance="10"
     gridtolerance="10"
     guidetolerance="10"
     inkscape:pageopacity="0"
     inkscape:pageshadow="2"
     inkscape:window-width="1440"
     inkscape:window-height="785"
     id="namedview8087"
     showgrid="false"
     inkscape:zoom="25.625"
     inkscape:cx="12.63064"
     inkscape:cy="14.375671"
     inkscape:window-x="0"
     inkscape:window-y="23"
     inkscape:window-maximized="0"
     inkscape:current-layer="svg8085"
     inkscape:pagecheckerboard="false"
     fit-margin-top="0"
     fit-margin-left="0"
     fit-margin-right="0"
     fit-margin-bottom="0" />
  <path
     d="m 17.402493,2.391598 c -0.756,-0.063 -1.476,0.09 -2.18,0.467 -0.94,0.503 -1.61,1.275 -1.912,2.28 v 0.067 l -0.035,0.235 -0.134,-0.235 -0.335,-0.603 c -0.536,-0.837 -1.206,-1.34 -2.044,-1.574 -0.736,-0.166 -1.3399997,-0.097 -1.9759997,0.24 -0.705,0.436 -1.106,1.106 -1.274,2.045 -0.168,0.972 0,1.91 0.502,2.847 l 0.236,0.336 -0.807,-0.267 c -1.005,-0.236 -1.944,-0.104 -2.883,0.4 -0.972,0.499 -1.574,1.205 -1.976,2.179 -0.37,0.938 -0.336,1.843 0.133,2.68 0.202,0.37 0.504,0.67 0.772,0.872 0.402,0.402 0.905,0.636 1.508,0.736 l 0.234,0.066 -0.502,0.438 c -0.47,0.402 -0.738,0.903 -0.906,1.406 -0.168,0.603 -0.1,1.207 0.236,1.777 0.17,0.268 0.334,0.503 0.602,0.67 0.268,0.235 0.604,0.403 1.006,0.436 0.738,0.17 1.508,0.168 2.346,-0.1 l -0.604,1.005 -0.168,0.436 c -0.335,1.074 -0.233,2.01 0.27,2.983 0.235,0.37 0.5,0.705 0.77,1.006 0.4,0.368 0.906,0.602 1.51,0.77 1.0039997,0.268 2.0099997,0.236 2.9799997,-0.267 0.94,-0.503 1.543,-1.31 1.845,-2.315 l 0.032,-0.2 c 0.637,0.703 1.24,1.173 1.912,1.34 0.67,0.202 1.34,0.17 1.944,-0.233 0.57,-0.335 0.973,-0.906 1.174,-1.61 0.168,-0.738 0.168,-1.474 0,-2.312 0.335,0.235 0.67,0.4 1.072,0.502 1.073,0.335 2.01,0.3 2.95,-0.2 0.904,-0.504 1.508,-1.308 1.81,-2.347 0.268,-1.005 0.202,-1.977 -0.3,-2.916 l -0.17,-0.27 c -0.267,-0.402 -0.537,-0.804 -0.94,-1.072 -0.334,-0.235 -0.735,-0.402 -1.104,-0.57 1.04,-0.503 1.776,-1.207 2.11,-2.112 0.236,-0.738 0.17,-1.342 -0.167,-1.945 v -0.066 c -0.402,-0.67 -0.937,-1.105 -1.775,-1.34 -0.503,-0.1 -1.072,-0.102 -1.574,-0.068 l -1.108,0.235 0.37,-0.838 c 0.334,-1.073 0.235,-2.112 -0.335,-3.084 l -0.1,-0.17 c -0.503,-0.838 -1.24,-1.34 -2.246,-1.607 -0.26,-0.067 -0.516,-0.113 -0.768,-0.133 z m -0.57,1.414 c 0.323,-0.03 0.65,0.012 0.967,0.13 0.704,0.166 1.207,0.534 1.51,1.104 v 0.003 c 0.168,0.335 0.267,0.736 0.267,1.172 l -0.1,0.738 c -0.134,0.37 -0.302,0.703 -0.503,1.004 l -3.016,3.69 c -0.3,-0.235 -0.637,-0.403 -0.972,-0.57 l -0.336,-3.79 -0.033,-1.34 0.032,-0.335 c 0.168,-0.67 0.638,-1.173 1.24,-1.508 0.302,-0.168 0.62,-0.268 0.944,-0.297 z m -6.8829997,0.537 c 0.1339997,-0.004 0.2759997,0.03 0.4099997,0.096 0.603,0.168 1.106,0.603 1.508,1.44 0.17,0.336 0.336,0.67 0.403,1.073 l 0.67,3.957 -0.504,0.168 -2.9829997,-3.252 -0.168,-0.334 c -0.27,-0.604 -0.435,-1.173 -0.368,-1.777 v -0.002 c 0.034,-0.603 0.268,-1.003 0.67,-1.238 0.1,-0.084 0.227,-0.127 0.36,-0.13 z m 12.1299997,5.033 c 0.15,0 0.297,0.007 0.448,0.024 0.57,0.068 0.972,0.337 1.173,0.74 l 0.135,0.433 -0.067,0.335 c -0.234,0.603 -0.738,1.074 -1.575,1.442 -0.335,0.168 -0.703,0.235 -1.105,0.3 l -4.123,0.503 -0.067,-0.235 -0.068,-0.1 0.135,-0.167 3.387,-2.816 0.4,-0.166 0.002,-0.002 c 0.45,-0.2 0.885,-0.286 1.328,-0.29 z m -15.4609997,0.183 c 0.16,0.008 0.324,0.033 0.49,0.075 v 0.002 l 0.908,0.367 2.9499997,2.147 c -0.27,0.336 -0.435,0.67 -0.536,1.005 l -4.8279997,0.603 -0.334,-0.066 c -0.603,-0.1 -1.007,-0.37 -1.276,-0.87 -0.27,-0.503 -0.267,-1.006 -0.066,-1.51 0.235,-0.636 0.67,-1.14 1.306,-1.407 0.453,-0.252 0.906,-0.373 1.387,-0.346 z m 7.1599997,2.69 c 0.604,0 1.175,0.236 1.544,0.604 0.47,0.47 0.67,0.973 0.67,1.576 0,0.603 -0.2,1.172 -0.67,1.574 -0.436,0.436 -0.94,0.67 -1.543,0.67 -0.636,0 -1.17,-0.235 -1.573,-0.67 -0.436,-0.402 -0.67,-0.97 -0.67,-1.574 0,-0.603 0.234,-1.107 0.67,-1.576 0.402,-0.37 0.937,-0.604 1.574,-0.604 z m 8.415,2.58 0.336,0.035 c 0.504,0.168 0.973,0.468 1.24,0.97 0.336,0.37 0.503,0.873 0.503,1.443 l -0.1,0.67 c -0.167,0.67 -0.57,1.173 -1.14,1.44 -0.603,0.336 -1.207,0.403 -1.877,0.17 -0.402,-0.1 -0.67,-0.268 -0.904,-0.536 l -3.52,-2.918 0.235,-0.502 0.1,-0.403 3.788,-0.335 1.34,-0.035 z m -6.636,2.448 1.407,1.44 0.87,1.073 0.17,0.337 c 0.3,0.57 0.468,1.105 0.4,1.742 -0.066,0.602 -0.267,1.038 -0.67,1.206 -0.234,0.168 -0.502,0.17 -0.77,0.135 -0.637,-0.166 -1.14,-0.668 -1.508,-1.473 l -0.403,-1.108 -0.502,-2.917 0.568,-0.2 0.436,-0.235 z m -3.62,0.068 c 0.334,0.167 0.67,0.334 1.04,0.367 0.066,1.14 0.165,2.347 0.332,3.654 v 1.342 l -0.033,0.333 c -0.236,0.603 -0.638,1.107 -1.24,1.375 -0.604,0.335 -1.24,0.402 -1.845,0.235 -0.6699997,-0.167 -1.1729997,-0.57 -1.4399997,-1.106 -0.17,-0.335 -0.304,-0.74 -0.304,-1.14 l 0.17,-0.77 c 0.066,-0.335 0.235,-0.67 0.503,-0.94 l 2.8159997,-3.35 z"
     id="path8083"
     style="filter:url(#filter8680)" />
</svg>
